<?xml version="1.0" encoding="utf-8"?>
<!-- Generator: Adobe Illustrator 26.2.1, SVG Export Plug-In . SVG Version: 6.00 Build 0)  -->
<svg version="1.1" id="Layer_1" xmlns="http://www.w3.org/2000/svg" xmlns:xlink="http://www.w3.org/1999/xlink" x="0px" y="0px"
	 viewBox="0 0 300 39" style="enable-background:new 0 0 300 39;" xml:space="preserve">
<style type="text/css">
	.st0{fill:#1A1A1A;}
	.st1{fill:#A145FF;}
</style>
<g>
	<g>
		<path class="st0" d="M29.7,9.9l-10.8,29h-7.8L0.2,9.9h8.5l6.3,20l6.3-20H29.7z"/>
		<path class="st0" d="M19,39h-8l0-0.1L0,9.8h8.7l0,0.1L15,29.5l6.3-19.7h8.6L19,39z M11.1,38.8h7.7L29.5,10h-8.2L15,30.1L8.6,10
			H0.3L11.1,38.8z"/>
	</g>
	<g>
		<path class="st0" d="M54.3,15.4v14.9c0,1.7,0.3,2,1.7,2h2v6.6h-2c-8.8,0-9.2-2.9-9.2-8.5V15.4h-4.7V9.7h4.7V4.3h7.5v5.4H59v5.7
			L54.3,15.4z"/>
		<path class="st0" d="M58.2,39h-2.1c-4.2,0-6.7-0.7-8-2.2c-1.3-1.5-1.4-3.7-1.4-6.4V15.5H42V9.6h4.7V4.2h7.7v5.4h4.7v5.9h-4.7v14.9
			c0,1.7,0.3,1.9,1.6,1.9h2.1V39z M42.2,15.3h4.7v15c0,5.5,0.4,8.4,9.1,8.4H58v-6.4h-1.9c-1.4,0-1.8-0.3-1.8-2.1v-15h4.7V9.8h-4.7
			V4.4h-7.3v5.4h-4.7V15.3z"/>
	</g>
	<g>
		<path class="st0" d="M87,21v17.8h-7.4V34c-6.1,7.1-19.4,6.9-19.4-3.1c0-13.1,19.4-6.2,19.4-11.5c0-3.4-2.8-4.1-4.9-4.1
			c-1.8,0-5.6,0.5-6.3,4.9l-7-1.6c0.9-6.7,7.7-8.8,13.2-8.8C80.6,9.9,87,12.4,87,21z M79.6,24.7v-0.5c-3.4,2.2-12.1-0.2-12.1,6.7
			C67.6,36.7,79.6,36.9,79.6,24.7L79.6,24.7z"/>
		<path class="st0" d="M68.9,39c-1.3,0-2.6-0.2-3.8-0.6c-3.2-1.2-5-3.9-5-7.5c0-3.6,1.4-6,4.4-7.4c2.5-1.2,5.7-1.4,8.6-1.6
			c3.6-0.3,6.5-0.5,6.5-2.5c0-3.5-3-4.1-4.8-4.1c-2,0-5.6,0.6-6.2,4.8l0,0.1l-7.2-1.6l0-0.1c0.9-6.6,7.5-8.9,13.3-8.8
			c3.5,0.1,6.4,0.9,8.5,2.5c2.6,1.9,4,4.9,4,8.8v17.9h-7.5v-4.7c-1.8,2-4.2,3.5-6.9,4.2C71.4,38.8,70.1,39,68.9,39z M74.7,15.1
			c4.4,0,5,2.7,5,4.2c0,2.2-3.1,2.4-6.6,2.7c-5.7,0.4-12.8,1-12.8,8.8c0,3.6,1.7,6.2,4.9,7.3c2.2,0.8,4.8,0.8,7.5,0.1
			c2.7-0.8,5.2-2.3,6.9-4.4l0.2-0.2v5h7.2V21c0-9.4-7.7-11-12.3-11.1c-5.7-0.1-12.2,2.1-13.1,8.6l6.8,1.5
			C69,15.7,72.6,15.1,74.7,15.1z M72,34.8c-2.6,0-4.6-1.6-4.6-3.9c0-4.7,4-5.1,7.5-5.6c1.8-0.2,3.5-0.4,4.6-1.2l0.1-0.1v0.6
			c0,3.2-0.9,5.9-2.5,7.7C75.8,34,73.9,34.8,72,34.8z M79.5,24.4c-1.1,0.7-2.8,0.9-4.6,1.1c-3.6,0.4-7.3,0.9-7.3,5.4
			c0,2.2,1.8,3.7,4.4,3.7c1.8,0,3.7-0.8,5-2.3c1.6-1.8,2.5-4.4,2.5-7.6V24.4z"/>
	</g>
	<g>
		<path class="st0" d="M131.2,22.8v16.1h-7.4V22.8c0-4.9-0.3-8.1-3.5-8.1c-2,0-6.3,1.1-6.3,14.2v10.1h-7.4V22.8
			c0-4.9-0.3-8.1-3.5-8.1c-2,0-6.3,1.1-6.3,14.2v10.1h-7.4v-29h7.4v5.3c1.9-3.7,4.8-5.4,8.4-5.4c5.2,0,7.4,2.9,8.3,6.6
			c1.8-4.5,5-6.6,8.9-6.6C130.3,9.9,131.2,16.7,131.2,22.8z"/>
		<path class="st0" d="M114.1,39h-7.6V22.8c0-4.7-0.2-8-3.4-8c-4,0-6.2,4.9-6.2,14.1V39h-7.6V9.8h7.6v5c1.9-3.4,4.6-5.1,8.3-5.1
			c4.4,0,7.1,2.1,8.3,6.4c1.8-4.2,4.8-6.4,8.9-6.4c7.9,0,8.9,6.6,8.9,13V39h-7.6V22.8c0-4.7-0.2-8-3.4-8c-4,0-6.2,4.9-6.2,14.1V39z
			 M106.6,38.8h7.2v-10c0-9.3,2.2-14.3,6.4-14.3c3.4,0,3.6,3.6,3.6,8.2v16h7.2v-16c0-6.3-1-12.8-8.7-12.8c-4.1,0-7.1,2.3-8.8,6.5
			l-0.1,0.3l-0.1-0.3c-1.1-4.4-3.8-6.5-8.2-6.5c-3.7,0-6.5,1.8-8.3,5.3l-0.2,0.4V10h-7.2v28.8h7.2v-10c0-9.3,2.2-14.3,6.4-14.3
			c3.4,0,3.6,3.6,3.6,8.2V38.8z"/>
	</g>
	<g>
		<path class="st0" d="M170.6,22.8v16.1h-7.4V22.8c0-4.9-0.5-8.2-3.7-8.2c-2,0-7.4,1.1-7.4,14.2v10.2h-7.4v-29h7.4v6.3
			c2.3-4.3,5.7-6.3,9.5-6.3C169.6,9.9,170.6,16.7,170.6,22.8z"/>
		<path class="st0" d="M170.7,39H163V22.8c0-5.1-0.6-8.1-3.6-8.1c-1.2,0-2.9,0.4-4.4,2.1c-1.9,2.3-2.9,6.3-2.9,11.9V39h-7.6V9.8h7.6
			v6c2.2-3.9,5.4-6,9.5-6c3.7,0,6.2,1.4,7.6,4.3c1.3,2.6,1.5,6.1,1.5,8.8V39z M163.2,38.8h7.2v-16c0-6.3-1.1-12.8-8.9-12.8
			c-4,0-7.3,2.1-9.5,6.2l-0.2,0.3V10h-7.2v28.8h7.2V28.7c0-5.6,1-9.7,3-12c1.5-1.8,3.3-2.2,4.6-2.2c3.5,0,3.8,3.9,3.8,8.3V38.8z"/>
	</g>
	<g>
		<path class="st0" d="M40.1,38.9v-29h-7.5v29H40.1z"/>
		<path class="st0" d="M40.2,39h-7.7V9.8h7.7V39z M32.7,38.8H40V10h-7.3V38.8z"/>
	</g>
	<g>
		<path class="st0" d="M36.3,0.1L36.3,0.1c2.3,0,4.1,1.9,4.1,4.1l0,0c0,2.3-1.9,4.1-4.1,4.1l0,0c-2.3,0-4.1-1.9-4.1-4.1l0,0
			C32.2,1.9,34,0.1,36.3,0.1z"/>
	</g>
	<g>
		<path class="st0" d="M141.8,38.9v-29h-7.5v29H141.8z"/>
		<path class="st0" d="M141.9,39h-7.7V9.8h7.7V39z M134.3,38.8h7.3V10h-7.3V38.8z"/>
	</g>
	<g>
		<path class="st0" d="M138,0L138,0c2.3,0,4.1,1.9,4.1,4.1v0c0,2.3-1.9,4.1-4.1,4.1h0c-2.3,0-4.1-1.9-4.1-4.1v0
			C133.8,1.9,135.7,0,138,0z"/>
	</g>
	<g>
		<path class="st0" d="M186.8,9.8c-7.4-0.1-14.3,4.7-14.3,14.6s6.9,14.6,14.3,14.6c6.8-0.1,11.4-3.2,13.6-8.4h-7.4
			c-1.6,1.7-3.8,2.4-6.2,2.4c-2.9,0-6.1-1.3-6.8-6.4h21c0.2-0.7,0.2-1.5,0.2-2.2C201.2,14.5,194.3,9.9,186.8,9.8z M180.2,21.3
			c0.9-4.1,3.9-5.8,6.7-5.7c2.8,0.1,5.7,1.6,6.7,5.7H180.2z"/>
		<path class="st0" d="M186.7,39c-4,0-7.6-1.4-10.2-3.9c-2.6-2.6-4-6.3-4-10.7c0-4.4,1.4-8.1,4-10.7c2.6-2.5,6.2-3.9,10.2-3.9
			c0.1,0,0.1,0,0.2,0h0c3.9,0,7.5,1.3,10.1,3.6c2.9,2.6,4.4,6.4,4.4,11c0,0.7,0,1.5-0.2,2.2l0,0.1h-20.9c0.8,5.1,4.1,6.2,6.7,6.2
			c2.6-0.1,4.6-0.8,6.1-2.4l0,0h7.6l-0.1,0.1c-1.1,2.6-2.8,4.7-5.1,6.1c-2.4,1.5-5.2,2.3-8.6,2.3C186.8,39,186.7,39,186.7,39z
			 M186.7,9.9c-4,0-7.5,1.4-10.1,3.9c-2.6,2.6-4,6.2-4,10.6c0,4.4,1.4,8,4,10.6c2.6,2.5,6.2,3.9,10.3,3.9c3.3,0,6.2-0.8,8.5-2.3
			c2.2-1.4,3.9-3.4,5-5.9h-7.2c-1.5,1.6-3.6,2.4-6.2,2.4c-1.7,0-3.2-0.4-4.3-1.3c-1.4-1.1-2.3-2.8-2.6-5.2l0-0.1h21
			c0.1-0.7,0.1-1.4,0.1-2.1c0-4.5-1.5-8.3-4.4-10.9c-2.5-2.3-6.1-3.5-9.9-3.6C186.8,9.9,186.7,9.9,186.7,9.9z M193.6,21.4h-13.5
			l0-0.1c1-4.4,4.1-5.9,6.7-5.8c1.6,0,5.6,0.7,6.7,5.8L193.6,21.4z M180.3,21.2h13.1c-1.2-4.9-5-5.5-6.5-5.5
			C184.3,15.6,181.3,17,180.3,21.2z"/>
	</g>
	<g>
		<path class="st0" d="M242.8,30.4l7.4-1.1c0.5,2.8,3.8,3.9,5.9,3.9c2.1,0,5.7-0.5,5.7-3.8c0-6.6-18.1,1.6-18.1-11
			c0-8.1,9.4-8.5,12.4-8.5c2.8,0,11,0.5,12.7,7l-7,1.5c-0.6-3-3.8-3.5-5.5-3.5c-1.7,0-5.3,0.4-5.3,3.7c0,6.5,18.1-1.8,18.1,11
			c0,8.6-9.9,9.3-13,9.3C253.2,38.6,244.2,37.9,242.8,30.4z"/>
		<path class="st0" d="M256,38.9c-7.7-0.4-12.3-3.4-13.3-8.4l0-0.1l7.5-1.1l0,0.1c0.3,1.5,1.4,2.5,2.3,2.9c1,0.6,2.3,0.9,3.5,0.9
			c2.1,0,5.6-0.5,5.6-3.7c0-2.7-3.1-2.8-6.8-3c-5-0.2-11.3-0.6-11.3-8c0-3.5,1.7-6,5.1-7.4c2-0.8,4.4-1.2,7.3-1.2
			c3.3,0,11.1,0.7,12.8,7l0,0.1l-7.2,1.5l0-0.1c-0.7-3.2-4.3-3.4-5.4-3.4c-1.6,0-5.2,0.3-5.2,3.6c0,2.6,3.1,2.8,6.7,2.9
			c5.1,0.2,11.4,0.5,11.4,8c0,3.7-1.8,6.4-5.4,8C260.7,38.7,257.3,38.9,256,38.9z M242.9,30.5c1,4.9,5.6,7.8,13.1,8.2
			c1.3,0,4.7-0.1,7.6-1.4c3.5-1.5,5.3-4.2,5.3-7.8c0-3.3-1.2-5.4-3.7-6.6c-2.2-1-5-1.1-7.5-1.3c-3.7-0.2-6.9-0.3-6.9-3.1
			c0-3.4,3.8-3.8,5.4-3.8c1.1,0,4.8,0.3,5.6,3.5l6.8-1.4c-1.7-6.1-9.3-6.8-12.6-6.8c-4.6,0-12.3,1.1-12.3,8.4
			c0,7.2,5.9,7.5,11.1,7.8c3.7,0.2,7,0.3,7,3.2c0,3.4-3.6,3.9-5.8,3.9c-1.2,0-2.5-0.3-3.6-0.9c-0.9-0.5-2.1-1.4-2.4-3L242.9,30.5z"
			/>
	</g>
	<g>
		<path class="st0" d="M285.5,9.8c-7.4-0.1-14.3,4.7-14.3,14.6S278,39,285.5,38.9c6.8-0.1,11.4-3.2,13.6-8.4h-7.4
			c-1.6,1.7-3.8,2.4-6.2,2.4c-2.9,0-6.1-1.3-6.8-6.4h21c0.2-0.7,0.2-1.5,0.2-2.2C299.9,14.5,292.9,9.9,285.5,9.8z M278.8,21.3
			c0.9-4.1,3.9-5.8,6.7-5.7c2.8,0.1,5.7,1.6,6.7,5.7H278.8z"/>
		<path class="st0" d="M285.3,39c-4,0-7.6-1.4-10.2-3.9c-2.6-2.6-4-6.3-4-10.7c0-4.4,1.4-8.1,4-10.7c2.6-2.5,6.2-3.9,10.2-3.9
			c0.1,0,0.1,0,0.2,0h0c3.9,0,7.5,1.3,10.1,3.6c2.9,2.6,4.4,6.4,4.4,11c0,0.7,0,1.5-0.2,2.2l0,0.1h-20.9c0.8,5.1,4.1,6.2,6.7,6.2
			c2.6-0.1,4.6-0.8,6.1-2.4l0,0h7.6l-0.1,0.1c-1.1,2.6-2.8,4.7-5.1,6.1c-2.4,1.5-5.2,2.3-8.6,2.3C285.4,39,285.4,39,285.3,39z
			 M285.3,9.9c-4,0-7.5,1.4-10.1,3.9c-2.6,2.6-4,6.2-4,10.6c0,4.4,1.4,8,4,10.6c2.6,2.5,6.2,3.9,10.3,3.9c3.3,0,6.2-0.8,8.5-2.3
			c2.2-1.4,3.9-3.4,5-5.9h-7.2c-1.5,1.6-3.6,2.4-6.2,2.4c-1.7,0-3.2-0.4-4.3-1.3c-1.4-1.1-2.3-2.8-2.6-5.2l0-0.1h21
			c0.1-0.7,0.1-1.4,0.1-2.1c0-4.5-1.5-8.3-4.4-10.9c-2.5-2.3-6.1-3.5-9.9-3.6C285.4,9.9,285.4,9.9,285.3,9.9z M292.2,21.4h-13.5
			l0-0.1c1-4.4,4.1-5.9,6.7-5.8c1.6,0,5.6,0.7,6.7,5.8L292.2,21.4z M278.9,21.2H292c-1.2-4.9-5-5.5-6.5-5.5
			C283,15.6,279.9,17,278.9,21.2z"/>
	</g>
	<g>
		<path class="st1" d="M220.6,20.7h4.2c2.1,0,3.8,1.7,3.8,3.8l0,0c0,2.1-1.7,3.8-3.8,3.8h-4.2c-2.1,0-3.8-1.7-3.8-3.8l0,0
			C216.8,22.4,218.5,20.7,220.6,20.7z"/>
	</g>
</g>
</svg>
