<svg width="192" height="24" viewBox="0 0 192 24" fill="none" xmlns="http://www.w3.org/2000/svg">
<mask id="mask0_2585_16338" style="mask-type:luminance" maskUnits="userSpaceOnUse" x="0" y="0" width="31" height="24">
<path fill-rule="evenodd" clip-rule="evenodd" d="M0.0473633 0.419067H30.2678V23.49H0.0473633V0.419067Z" fill="white"/>
</mask>
<g mask="url(#mask0_2585_16338)">
<path fill-rule="evenodd" clip-rule="evenodd" d="M24.4737 20.808C24.4737 21.696 24.3652 22.3989 23.917 22.7732C23.5446 23.0843 22.7969 23.1683 21.6855 23.1683C21.6255 23.1683 21.6181 23.49 21.6855 23.49H30.2198C30.2872 23.49 30.2798 23.1683 30.2198 23.1683C29.1084 23.1683 28.3607 23.0843 27.9883 22.7732C27.5401 22.3989 27.4317 21.696 27.4317 20.808V8.03398C27.4317 7.14644 27.5401 6.44306 27.9883 6.06921C28.3607 5.75767 29.1084 5.6746 30.2198 5.6746C30.2798 5.6746 30.2872 5.35291 30.2198 5.35291H21.6855C21.6181 5.35291 21.6255 5.6746 21.6855 5.6746C22.7969 5.6746 23.5446 5.75767 23.917 6.06921C24.3652 6.44306 24.4737 7.14644 24.4737 8.03398V20.808Z" fill="black"/>
<path fill-rule="evenodd" clip-rule="evenodd" d="M18.8263 0.419067L18.8614 6.34799C18.8743 6.40753 18.5974 6.4523 18.577 6.40199C17.1015 2.74153 16.045 0.931837 11.4952 0.931837H10.9834V20.5841C10.9834 21.5511 11.0932 22.2249 11.5857 22.6768C11.924 22.9883 13.1715 23.1355 14.1814 23.1355C14.2358 23.1355 14.2423 23.49 14.1814 23.49H4.69997C4.63905 23.49 4.64551 23.1355 4.69997 23.1355C5.70982 23.1355 6.95689 22.9883 7.29566 22.6768C7.78859 22.2249 7.89751 21.5511 7.89751 20.5841V0.931837H7.38566C2.83582 0.931837 1.77982 2.74153 0.304277 6.40199C0.28397 6.4523 0.00704657 6.40753 0.0199696 6.34799L0.0550466 0.419067H18.8263Z" fill="black"/>
</g>
<path fill-rule="evenodd" clip-rule="evenodd" d="M46.7981 5.35291H33.6475C33.5861 5.35291 33.593 5.6746 33.6475 5.6746C34.6578 5.6746 35.3607 5.75767 35.6995 6.06921C36.1066 6.44306 36.2053 7.14644 36.2053 8.03398V20.808C36.2053 21.696 36.1066 22.3989 35.6995 22.7732C35.3607 23.0843 34.6578 23.1683 33.6475 23.1683C33.593 23.1683 33.5861 23.49 33.6475 23.49H41.9515C42.0189 23.49 42.0115 23.1683 41.9515 23.1683C40.8406 23.1683 40.0924 23.0843 39.7199 22.7732C39.2718 22.3989 39.1633 21.696 39.1633 20.808V14.5421H40.4409C41.8403 14.5421 42.5639 14.7849 43.1533 15.2326C43.6439 15.6055 44.0312 16.4478 44.0312 17.1835C44.0312 17.2431 44.2573 17.25 44.321 17.1835V11.43C44.2573 11.3626 44.0312 11.37 44.0312 11.43C44.0312 12.1657 43.6439 13.0075 43.1533 13.38C42.5639 13.8281 41.8403 14.0709 40.4409 14.0709H39.1633V5.82367H40.8719C44.9824 5.82367 46.0126 7.78337 46.6301 10.056C46.6444 10.1086 46.8632 10.0615 46.8503 10.002L46.7981 5.35291Z" fill="black"/>
<path fill-rule="evenodd" clip-rule="evenodd" d="M62.5045 5.35291H49.3543C49.2934 5.35291 49.2999 5.6746 49.3543 5.6746C50.3646 5.6746 51.0676 5.75767 51.4063 6.06921C51.8134 6.44306 51.9122 7.14644 51.9122 8.03398V20.808C51.9122 21.696 51.8134 22.3989 51.4063 22.7732C51.0676 23.0843 50.3646 23.1683 49.3543 23.1683C49.2999 23.1683 49.2934 23.49 49.3543 23.49H57.6583C57.7253 23.49 57.7183 23.1683 57.6583 23.1683C56.547 23.1683 55.7993 23.0843 55.4268 22.7732C54.9786 22.3989 54.8702 21.696 54.8702 20.808V14.5421H56.1473C57.5471 14.5421 58.2703 14.7849 58.8602 15.2326C59.3508 15.6055 59.738 16.4478 59.738 17.1835C59.738 17.2431 59.9637 17.25 60.0279 17.1835V11.43C59.9637 11.3626 59.738 11.37 59.738 11.43C59.738 12.1657 59.3508 13.0075 58.8602 13.38C58.2703 13.8281 57.5471 14.0709 56.1473 14.0709H54.8702V5.82367H56.5783C60.6893 5.82367 61.7199 7.78337 62.337 10.056C62.3513 10.1086 62.57 10.0615 62.5576 10.002L62.5045 5.35291Z" fill="black"/>
<path fill-rule="evenodd" clip-rule="evenodd" d="M67.4864 16.3306L70.1661 9.07987L72.9409 16.3306H67.4864ZM80.1201 23.1683C78.6603 23.0119 78.255 22.5171 77.5992 20.808L71.5863 4.88448C71.5863 4.81756 71.1686 4.82448 71.1686 4.88448L65.2812 20.4693C64.4855 22.5434 63.8818 22.8023 62.1178 23.1683C62.0647 23.1789 62.0574 23.49 62.1178 23.49H67.5261C67.587 23.49 67.5801 23.1706 67.5261 23.1683C65.985 23.0876 65.1935 22.4589 65.9569 20.4693L67.3124 16.8023H73.1209L74.5586 20.5602C75.2103 22.2586 74.5429 23.0714 72.9418 23.1683C72.8874 23.1711 72.8809 23.49 72.9418 23.49H80.1201C80.181 23.49 80.1741 23.1734 80.1201 23.1683Z" fill="black"/>
<path fill-rule="evenodd" clip-rule="evenodd" d="M99.1047 5.35291H92.9944C92.9335 5.35291 92.9404 5.66952 92.9944 5.6746C94.3647 5.79552 95.0091 5.91921 95.3663 6.53167C95.7738 7.23091 95.9367 8.42075 95.9367 9.99367V18.786L85.6795 5.35291H80.6621C80.6007 5.35291 80.6077 5.6746 80.6621 5.6746C82.5678 5.6746 83.4757 6.74167 83.4757 8.29752V18.8483C83.4757 20.4217 83.3769 21.6115 82.9698 22.3098C82.6172 22.9154 82.2618 23.0548 80.9815 23.1683C80.9275 23.1724 80.9206 23.49 80.9815 23.49H87.0277C87.0886 23.49 87.0817 23.1724 87.0277 23.1683C85.6574 23.0474 85.0126 22.9228 84.6554 22.3108C84.2483 21.6115 84.0854 20.4217 84.0854 18.8483V8.0986L96.1601 23.6377C96.2654 23.7748 96.5464 23.7623 96.5464 23.6377V9.99367C96.5464 8.42075 96.6447 7.23091 97.0523 6.53167C97.4095 5.91921 97.7344 5.79552 99.1047 5.6746C99.1588 5.66952 99.1657 5.35291 99.1047 5.35291Z" fill="black"/>
<path fill-rule="evenodd" clip-rule="evenodd" d="M117.266 5.35291H112.115C112.053 5.35291 112.056 5.67321 112.111 5.6746C113.735 5.72306 114.327 6.33091 113.752 7.5466L110.112 14.5089L106.18 7.43583C105.587 6.28891 106.23 5.6746 107.888 5.6746C107.942 5.6746 107.945 5.35291 107.884 5.35291H100.45C100.388 5.35291 100.399 5.67091 100.453 5.6746C101.944 5.77937 102.302 6.12691 102.892 7.26783L107.441 15.5608V20.808C107.441 21.696 107.342 22.3989 106.935 22.7732C106.597 23.0843 105.893 23.1683 104.883 23.1683C104.828 23.1683 104.822 23.49 104.883 23.49H112.957C113.018 23.49 113.011 23.1683 112.957 23.1683C111.946 23.1683 111.244 23.0843 110.905 22.7732C110.497 22.3989 110.398 21.696 110.398 20.808V15.0217L114.486 7.49675C115.192 6.12921 115.812 5.77937 117.263 5.6746C117.317 5.67091 117.328 5.35291 117.266 5.35291Z" fill="black"/>
<mask id="mask1_2585_16338" style="mask-type:luminance" maskUnits="userSpaceOnUse" x="147" y="0" width="41" height="24">
<path fill-rule="evenodd" clip-rule="evenodd" d="M147.47 0H187.78V23.8126H147.47V0Z" fill="white"/>
</mask>
<g mask="url(#mask1_2585_16338)">
<path fill-rule="evenodd" clip-rule="evenodd" d="M178.725 5.53479C175.04 5.53479 173.155 9.30509 173.155 14.4212C173.155 19.5369 175.04 23.3077 178.725 23.3077C182.411 23.3077 184.295 19.5369 184.295 14.4212C184.295 9.30509 182.411 5.53479 178.725 5.53479ZM178.725 5.09863C183.754 5.09863 187.78 9.25663 187.78 14.4212C187.78 19.5859 183.754 23.7443 178.725 23.7443C173.696 23.7443 169.67 19.5859 169.67 14.4212C169.67 9.25663 173.696 5.09863 178.725 5.09863Z" fill="black"/>
<path fill-rule="evenodd" clip-rule="evenodd" d="M166.94 16.7354C166.94 16.6703 166.686 16.6191 166.656 16.7635C165.801 20.8486 162.813 23.2578 160.07 23.2578C154.809 23.2578 151.419 18.5261 151.419 12.0184C151.419 5.51028 154.361 0.650746 159.622 0.650746C162.558 0.650746 165.633 2.91736 166.519 6.85336C166.53 6.9069 166.816 6.8589 166.803 6.79936L166.613 0.0424387C166.601 -0.0106382 166.311 -0.0180228 166.304 0.0424387C166.183 1.05228 165.55 1.63844 164.535 1.25305C163.015 0.677516 161.328 0.0959772 159.558 0.0959772C153.015 0.0959772 147.47 5.4489 147.47 12.0184C147.47 18.588 153.015 23.8126 159.558 23.8126C162.304 23.8126 164.676 23.2011 166.626 21.8169L166.94 16.7354Z" fill="black"/>
</g>
<path fill-rule="evenodd" clip-rule="evenodd" d="M190.177 20.1166C191.169 20.1166 191.953 20.9174 191.953 21.9305C191.953 22.9436 191.169 23.7443 190.177 23.7443C189.185 23.7443 188.401 22.9436 188.401 21.9305C188.401 20.9174 189.185 20.1166 190.177 20.1166Z" fill="black"/>
<path fill-rule="evenodd" clip-rule="evenodd" d="M124.378 17.0834C124.378 14.8112 125.415 13.2508 127.381 12.3092L133.273 20.1337C131.892 21.4288 130.374 22.2577 128.928 22.2577C126.403 22.2577 124.378 20.1554 124.378 17.0834ZM130.226 2.85047C131.907 2.85047 132.898 4.13539 132.898 6.1777C132.898 7.99385 131.408 10.05 129.374 10.8115C127.852 8.65616 127.556 7.29878 127.556 6.05908C127.556 3.70201 128.584 2.85047 130.226 2.85047ZM142.015 12.6522H134.751C134.69 12.6522 134.692 12.9743 134.747 12.9743C136.508 12.9743 137.548 13.6375 136.865 15.0808C136.36 16.1451 135.744 17.1775 135.054 18.1122L129.74 11.2892C132.848 9.79385 134.509 8.28647 134.509 5.87401C134.509 4.17231 132.668 2.27539 130.132 2.27539C127.454 2.27539 125.129 4.5037 125.129 6.92124C125.129 8.51354 125.553 9.60001 127.073 11.8689C124.05 12.9771 121.403 15.4366 121.403 18.2977C121.403 21.5183 123.963 23.8126 127.381 23.8126C129.895 23.8126 131.92 22.4677 133.655 20.6395L135.818 23.49H141.163C141.224 23.49 141.217 23.1683 141.163 23.1683C140.152 23.1683 139.892 23.0843 139.295 22.7732C138.576 22.3989 137.893 21.696 137.154 20.808L135.398 18.5534C136.409 17.2122 137.329 15.7962 138.21 14.5403C138.878 13.5905 139.602 13.1479 142.01 12.9743C142.064 12.9702 142.075 12.6522 142.015 12.6522Z" fill="black"/>
</svg>
